<svg width="360" height="58" viewBox="0 0 360 58" fill="none" xmlns="http://www.w3.org/2000/svg">
<path d="M9.73779 30.46H18.9517V37H2.51123V11.0928H9.73779V30.46ZM21.8784 14.5254V8.67188H28.6533V14.5254H21.8784ZM21.8242 37V17.0186H28.7075V37H21.8242ZM56.5479 16.4224C58.6797 16.4224 60.396 17.1751 61.6968 18.6807C63.0096 20.1742 63.666 22.1012 63.666 24.4619V37H56.7827V25.311C56.7827 23.2515 56.042 22.2217 54.5605 22.2217C52.6576 22.2217 51.7061 23.4984 51.7061 26.0518V37H45.0034V25.311C45.0034 23.2515 44.2687 22.2217 42.7993 22.2217C41.8719 22.2217 41.1553 22.5529 40.6494 23.2153C40.1556 23.8657 39.9087 24.8112 39.9087 26.0518V37H33.0254V17.0186H37.8672L38.8428 19.1685C39.5775 18.3133 40.4507 17.6449 41.4624 17.1631C42.4741 16.6693 43.5461 16.4224 44.6782 16.4224C45.8826 16.4224 46.9787 16.6813 47.9663 17.1992C48.966 17.7171 49.779 18.4398 50.4053 19.3672C51.1279 18.4518 52.0252 17.7352 53.0972 17.2173C54.1691 16.6873 55.3193 16.4224 56.5479 16.4224ZM67.8394 14.5254V8.67188H74.6143V14.5254H67.8394ZM67.7852 37V17.0186H74.6685V37H67.7852ZM89.8081 30.9658H92.4639V37H87.7305C85.5143 37 83.7739 36.3677 82.5093 35.103C81.2446 33.8263 80.6123 32.0799 80.6123 29.8638V22.312H76.9629V20.7041L85.9058 11.1831H87.333V17.0186H92.3555V22.312H87.4956V28.6714C87.4956 29.382 87.7004 29.9421 88.1099 30.3516C88.5194 30.7611 89.0854 30.9658 89.8081 30.9658ZM116.077 26.8286C116.077 27.4549 116.035 28.0571 115.95 28.6353H101.1C101.328 29.7795 101.792 30.6466 102.491 31.2368C103.189 31.827 104.087 32.1221 105.183 32.1221C105.99 32.1221 106.706 31.9595 107.333 31.6343C107.971 31.297 108.459 30.8333 108.796 30.2432H115.643C114.944 32.5195 113.65 34.3262 111.759 35.6631C109.88 36.988 107.688 37.6504 105.183 37.6504C103.135 37.6504 101.28 37.1927 99.6182 36.2773C97.9681 35.3499 96.6733 34.0732 95.7339 32.4473C94.7944 30.8213 94.3247 29.0026 94.3247 26.9912C94.3247 23.932 95.3485 21.3966 97.396 19.3853C99.4556 17.3739 102.051 16.3682 105.183 16.3682C106.76 16.3682 108.23 16.6392 109.591 17.1812C110.952 17.7231 112.102 18.4639 113.042 19.4033C113.993 20.3307 114.734 21.4388 115.264 22.7275C115.806 24.0163 116.077 25.3833 116.077 26.8286ZM105.183 21.752C104.183 21.752 103.34 22.0169 102.653 22.5469C101.979 23.0648 101.503 23.8236 101.226 24.8232H109.302C108.688 22.7757 107.314 21.752 105.183 21.752ZM133.493 9.81006H140.304V37H135.209L134.559 35.5186C132.86 36.9518 130.849 37.6685 128.524 37.6685C125.465 37.6685 122.948 36.6688 120.973 34.6694C119.009 32.6701 118.028 30.1167 118.028 27.0093C118.028 23.9019 119.009 21.3545 120.973 19.3672C122.948 17.3678 125.465 16.3682 128.524 16.3682C130.343 16.3682 131.999 16.8319 133.493 17.7593V9.81006ZM126.248 30.2793C127.091 31.1465 128.157 31.5801 129.446 31.5801C130.735 31.5801 131.8 31.1465 132.644 30.2793C133.499 29.4001 133.926 28.3101 133.926 27.0093C133.926 25.7085 133.499 24.6245 132.644 23.7573C131.8 22.8781 130.735 22.4385 129.446 22.4385C128.157 22.4385 127.091 22.8781 126.248 23.7573C125.405 24.6245 124.983 25.7085 124.983 27.0093C124.983 28.3101 125.405 29.4001 126.248 30.2793ZM144.459 29.8818V23.6309H158.009V29.8818H144.459ZM179.219 11.0928V17.5244H172.173V37H165.019V17.5244H157.973V11.0928H179.219ZM181.875 14.5254V8.67188H188.649V14.5254H181.875ZM181.82 37V17.0186H188.704V37H181.82ZM216.544 16.4224C218.676 16.4224 220.392 17.1751 221.693 18.6807C223.006 20.1742 223.662 22.1012 223.662 24.4619V37H216.779V25.311C216.779 23.2515 216.038 22.2217 214.557 22.2217C212.654 22.2217 211.702 23.4984 211.702 26.0518V37H205V25.311C205 23.2515 204.265 22.2217 202.795 22.2217C201.868 22.2217 201.151 22.5529 200.646 23.2153C200.152 23.8657 199.905 24.8112 199.905 26.0518V37H193.021V17.0186H197.863L198.839 19.1685C199.574 18.3133 200.447 17.6449 201.458 17.1631C202.47 16.6693 203.542 16.4224 204.674 16.4224C205.879 16.4224 206.975 16.6813 207.962 17.1992C208.962 17.7171 209.775 18.4398 210.401 19.3672C211.124 18.4518 212.021 17.7352 213.093 17.2173C214.165 16.6873 215.315 16.4224 216.544 16.4224ZM248.359 26.8286C248.359 27.4549 248.317 28.0571 248.232 28.6353H233.382C233.611 29.7795 234.074 30.6466 234.773 31.2368C235.472 31.827 236.369 32.1221 237.465 32.1221C238.272 32.1221 238.988 31.9595 239.615 31.6343C240.253 31.297 240.741 30.8333 241.078 30.2432H247.925C247.227 32.5195 245.932 34.3262 244.041 35.6631C242.162 36.988 239.97 37.6504 237.465 37.6504C235.417 37.6504 233.562 37.1927 231.9 36.2773C230.25 35.3499 228.956 34.0732 228.016 32.4473C227.077 30.8213 226.607 29.0026 226.607 26.9912C226.607 23.932 227.631 21.3966 229.678 19.3853C231.738 17.3739 234.333 16.3682 237.465 16.3682C239.043 16.3682 240.512 16.6392 241.873 17.1812C243.234 17.7231 244.384 18.4639 245.324 19.4033C246.275 20.3307 247.016 21.4388 247.546 22.7275C248.088 24.0163 248.359 25.3833 248.359 26.8286ZM237.465 21.752C236.465 21.752 235.622 22.0169 234.936 22.5469C234.261 23.0648 233.785 23.8236 233.508 24.8232H241.584C240.97 22.7757 239.597 21.752 237.465 21.752ZM272.749 37.6504C270.002 37.6504 267.545 37.0723 265.377 35.916C263.209 34.7477 261.517 33.1278 260.301 31.0562C259.096 28.9845 258.494 26.6479 258.494 24.0464C258.494 21.4448 259.096 19.1082 260.301 17.0366C261.517 14.965 263.209 13.3511 265.377 12.1948C267.545 11.0265 270.002 10.4424 272.749 10.4424C274.796 10.4424 276.699 10.7856 278.458 11.4722C280.228 12.1466 281.734 13.0801 282.974 14.2725C284.227 15.4528 285.208 16.8921 285.919 18.5903C286.63 20.2765 286.985 22.0952 286.985 24.0464C286.985 25.9976 286.63 27.8223 285.919 29.5205C285.208 31.2067 284.227 32.646 282.974 33.8384C281.734 35.0187 280.228 35.9521 278.458 36.6387C276.699 37.3132 274.796 37.6504 272.749 37.6504ZM267.853 29.0508C269.141 30.3636 270.773 31.02 272.749 31.02C274.724 31.02 276.35 30.3636 277.626 29.0508C278.903 27.738 279.542 26.0698 279.542 24.0464C279.542 22.0229 278.903 20.3608 277.626 19.0601C276.35 17.7472 274.724 17.0908 272.749 17.0908C270.773 17.0908 269.141 17.7472 267.853 19.0601C266.564 20.3729 265.919 22.035 265.919 24.0464C265.919 26.0578 266.564 27.7259 267.853 29.0508ZM303.642 17.3438V22.7456H299.162V37H292.278V22.7456H288.972V17.3438H292.369V15.4287C292.369 13.4053 292.917 11.8455 294.013 10.7495C295.109 9.64144 296.705 9.0874 298.8 9.0874H303.606V14.3628H300.571C300.053 14.3628 299.649 14.5073 299.36 14.7964C299.083 15.0734 298.945 15.4709 298.945 15.9888V17.3438H303.642ZM319.613 17.3438V22.7456H315.132V37H308.249V22.7456H304.943V17.3438H308.339V15.4287C308.339 13.4053 308.887 11.8455 309.983 10.7495C311.079 9.64144 312.675 9.0874 314.771 9.0874H319.577V14.3628H316.542C316.024 14.3628 315.62 14.5073 315.331 14.7964C315.054 15.0734 314.916 15.4709 314.916 15.9888V17.3438H319.613ZM342.449 26.8286C342.449 27.4549 342.407 28.0571 342.322 28.6353H327.472C327.701 29.7795 328.164 30.6466 328.863 31.2368C329.561 31.827 330.459 32.1221 331.555 32.1221C332.362 32.1221 333.078 31.9595 333.705 31.6343C334.343 31.297 334.831 30.8333 335.168 30.2432H342.015C341.317 32.5195 340.022 34.3262 338.131 35.6631C336.252 36.988 334.06 37.6504 331.555 37.6504C329.507 37.6504 327.652 37.1927 325.99 36.2773C324.34 35.3499 323.045 34.0732 322.106 32.4473C321.167 30.8213 320.697 29.0026 320.697 26.9912C320.697 23.932 321.721 21.3966 323.768 19.3853C325.828 17.3739 328.423 16.3682 331.555 16.3682C333.132 16.3682 334.602 16.6392 335.963 17.1812C337.324 17.7231 338.474 18.4639 339.414 19.4033C340.365 20.3307 341.106 21.4388 341.636 22.7275C342.178 24.0163 342.449 25.3833 342.449 26.8286ZM331.555 21.752C330.555 21.752 329.712 22.0169 329.025 22.5469C328.351 23.0648 327.875 23.8236 327.598 24.8232H335.674C335.06 22.7757 333.687 21.752 331.555 21.752ZM356.757 16.9282H358.582V23.2153H355.908C354.692 23.2153 353.812 23.5044 353.271 24.0825C352.729 24.6486 352.458 25.57 352.458 26.8467V37H345.574V17.0186H350.181L351.247 19.2407C351.946 18.4338 352.735 17.8496 353.614 17.4883C354.505 17.1149 355.553 16.9282 356.757 16.9282Z" fill="white"/>
<path fill-rule="evenodd" clip-rule="evenodd" d="M242.777 52.8566C242.841 52.7813 242.876 52.6969 242.876 52.6079C242.876 52.2883 242.417 52.0293 241.85 52.0293C228.223 52.0293 214.595 52.0228 200.966 52.0163C173.706 52.0032 146.445 51.9901 119.185 52.0293C117.017 52.0324 114.826 52.0238 112.621 52.0151C104.82 51.9844 96.8414 51.9529 89.0882 52.4385C88.4957 52.4756 88.0313 52.5109 87.6926 52.5451C87.5251 52.562 87.3683 52.5806 87.2338 52.6021C87.1667 52.6128 87.0886 52.6268 87.0096 52.6454C86.9444 52.6608 86.8107 52.6945 86.6788 52.7576C86.5629 52.813 86.2409 52.9951 86.3063 53.2894C86.3654 53.555 86.6995 53.6866 86.7884 53.7194C86.9949 53.7955 87.2253 53.8232 87.3095 53.8334L87.3117 53.8336C87.5549 53.8629 87.8903 53.8834 88.2619 53.8998C89.7779 53.9667 92.7549 53.9982 96.2705 54.0118C100.76 54.0292 106.214 54.0173 110.792 54.0072C113.402 54.0015 115.727 53.9964 117.427 53.9977C138.957 54.0143 160.488 54.0207 182.018 54.0217C162.736 54.2907 143.456 54.6197 124.182 55.0424C101.914 55.1014 80.9027 55.1566 63.7744 55.2016C52.6433 55.2308 43.1521 55.2557 36.0216 55.2746C35.4547 55.2761 34.9974 55.5363 35 55.8558C35.0027 56.1753 35.4643 56.4331 36.0312 56.4316C43.1615 56.4128 52.6526 56.3878 63.7836 56.3586C67.5418 56.3487 71.487 56.3384 75.5914 56.3276C74.8046 56.3523 74.0177 56.3772 73.2309 56.4023C66.523 56.6163 63.0983 56.7388 61.8909 56.7991C61.7386 56.8067 61.6124 56.8138 61.5154 56.8204C61.4676 56.8236 61.4182 56.8274 61.3722 56.8317L61.3691 56.832C61.3424 56.8344 61.2439 56.8436 61.1403 56.8647C61.1084 56.8712 61.0433 56.8854 60.9679 56.9101C60.9209 56.9256 60.7205 56.9914 60.5829 57.1323C60.5241 57.2035 60.4581 57.3694 60.4592 57.4615C60.4852 57.5505 60.5935 57.702 60.6662 57.7634C60.8263 57.8817 61.0213 57.9305 61.0688 57.9424C61.1924 57.9733 61.3019 57.9836 61.3264 57.9859L61.3286 57.9861C61.3707 57.9901 61.4073 57.9922 61.431 57.9935C61.5172 57.9979 61.6233 57.9992 61.7178 57.9997C62.1209 58.0019 62.9392 57.9917 64.0121 57.9738C66.9853 57.9242 72.0968 57.8123 76.483 57.7163C78.4662 57.673 80.301 57.6328 81.723 57.6031C122.718 56.7473 163.751 56.2665 204.787 55.9832C230.299 55.9134 253.175 55.849 269.043 55.8006C291.181 55.7332 302.966 55.6895 308.064 55.6624C309.338 55.6556 310.198 55.6498 310.698 55.6449C310.942 55.6425 311.116 55.6402 311.208 55.6378C311.229 55.6372 311.265 55.6362 311.301 55.6342C311.31 55.6337 311.375 55.6304 311.449 55.6203C311.513 55.6104 311.753 55.5487 311.91 55.4808C312.221 55.16 311.93 54.6445 311.654 54.5352C311.567 54.5145 311.438 54.4929 311.398 54.4881C311.375 54.4859 311.338 54.4828 311.322 54.4817C311.294 54.4798 311.269 54.4789 311.257 54.4784C311.229 54.4774 311.2 54.4768 311.176 54.4764C310.818 54.4697 309.244 54.4668 306.953 54.466C297.737 54.463 276.456 54.4967 272.47 54.5083C254.109 54.562 235.742 54.6356 217.374 54.7451C227.351 54.6373 237.328 54.5399 247.304 54.4484C272.469 54.2174 285.83 54.1318 310.385 54.0428C316.138 54.0219 321.892 54.0126 327.648 54.0033C328.795 54.0015 329.942 53.9996 331.09 53.9977H337.006C337.249 53.9977 337.378 53.9977 337.405 53.9976L337.417 53.9975C337.417 53.9975 337.427 53.9974 337.439 53.9972C337.448 53.997 337.486 53.9956 337.515 53.9941C338.252 53.7438 338.066 52.9776 337.51 52.8436C337.484 52.8423 337.448 52.841 337.439 52.8408L337.425 52.8406L337.414 52.8405L337.405 52.8404L337.364 52.8403L337.192 52.8402C336.883 52.8399 336.267 52.8396 335.527 52.8394C334.049 52.839 332.076 52.839 331.087 52.8406H328.849C305.357 52.8406 281.866 52.8467 258.374 52.8527C253.175 52.854 247.976 52.8554 242.777 52.8566ZM61.7132 57.9727C61.7014 57.974 61.6988 57.974 61.709 57.9731C61.7097 57.973 61.7111 57.9729 61.7132 57.9727ZM87.7095 52.6977C87.71 52.6976 87.717 52.6985 87.7292 52.7007C87.7151 52.6989 87.709 52.6978 87.7095 52.6977Z" fill="#F6F8FC"/>
</svg>
