<svg width="12" height="11" viewBox="0 0 12 11" fill="none" xmlns="http://www.w3.org/2000/svg">
<path d="M5.25029 0.463527C5.39997 0.00287151 6.05167 0.00287008 6.20135 0.463525L7.17447 3.45849C7.24141 3.6645 7.43338 3.80398 7.65 3.80398H10.7991C11.2834 3.80398 11.4848 4.42378 11.093 4.70849L8.54531 6.55947C8.37007 6.68679 8.29674 6.91248 8.36368 7.11849L9.3368 10.1134C9.48647 10.5741 8.95923 10.9572 8.56738 10.6725L6.01971 8.82148C5.84447 8.69416 5.60717 8.69416 5.43193 8.82148L2.88426 10.6725C2.4924 10.9572 1.96516 10.5741 2.11484 10.1134L3.08796 7.11849C3.1549 6.91248 3.08157 6.68679 2.90633 6.55947L0.358662 4.70849C-0.0331953 4.42379 0.168191 3.80398 0.652553 3.80398H3.80164C4.01825 3.80398 4.21023 3.6645 4.27717 3.45849L5.25029 0.463527Z" fill="#F6C644"/>
</svg>
